<mxfile host="app.diagrams.net" agent="Mozilla/5.0 (X11; Linux x86_64; rv:134.0) Gecko/20100101 Firefox/134.0" version="26.0.5">
  <diagram name="Page-1" id="S7144LthoN_sh4gh5SaR">
    <mxGraphModel dx="928" dy="483" grid="1" gridSize="10" guides="1" tooltips="1" connect="1" arrows="1" fold="1" page="1" pageScale="1" pageWidth="850" pageHeight="1100" math="0" shadow="0">
      <root>
        <mxCell id="0" />
        <mxCell id="1" parent="0" />
        <mxCell id="zopvRXgS-9q4ktlSTO6l-1" value="" style="rounded=0;whiteSpace=wrap;html=1;" vertex="1" parent="1">
          <mxGeometry x="200" y="40" width="480" height="960" as="geometry" />
        </mxCell>
        <mxCell id="zopvRXgS-9q4ktlSTO6l-2" value="Tutoring Progress" style="text;html=1;align=center;verticalAlign=middle;whiteSpace=wrap;rounded=0;fontSize=24;" vertex="1" parent="1">
          <mxGeometry x="220" y="60" width="440" height="40" as="geometry" />
        </mxCell>
        <mxCell id="zopvRXgS-9q4ktlSTO6l-3" value="John Doe" style="text;html=1;align=center;verticalAlign=middle;whiteSpace=wrap;rounded=0;fontSize=16;" vertex="1" parent="1">
          <mxGeometry x="220" y="97" width="440" height="30" as="geometry" />
        </mxCell>
        <mxCell id="zopvRXgS-9q4ktlSTO6l-6" value="" style="endArrow=none;dashed=1;html=1;rounded=0;exitX=0;exitY=1;exitDx=0;exitDy=0;entryX=1;entryY=1;entryDx=0;entryDy=0;" edge="1" parent="1" source="zopvRXgS-9q4ktlSTO6l-3" target="zopvRXgS-9q4ktlSTO6l-3">
          <mxGeometry width="50" height="50" relative="1" as="geometry">
            <mxPoint x="400" y="300" as="sourcePoint" />
            <mxPoint x="450" y="250" as="targetPoint" />
          </mxGeometry>
        </mxCell>
        <mxCell id="zopvRXgS-9q4ktlSTO6l-21" value="&lt;div align=&quot;left&quot;&gt;Timezone&lt;/div&gt;" style="text;html=1;align=left;verticalAlign=top;whiteSpace=wrap;rounded=0;fontSize=9;fontStyle=2" vertex="1" parent="1">
          <mxGeometry x="220" y="50" width="50" height="20" as="geometry" />
        </mxCell>
        <mxCell id="zopvRXgS-9q4ktlSTO6l-22" value="" style="group" vertex="1" connectable="0" parent="1">
          <mxGeometry x="220" y="150" width="440" height="140" as="geometry" />
        </mxCell>
        <mxCell id="zopvRXgS-9q4ktlSTO6l-18" value="General Summary" style="text;html=1;align=left;verticalAlign=bottom;whiteSpace=wrap;rounded=0;strokeColor=none;dashed=1;fontSize=16;" vertex="1" parent="zopvRXgS-9q4ktlSTO6l-22">
          <mxGeometry width="440" height="30" as="geometry" />
        </mxCell>
        <mxCell id="zopvRXgS-9q4ktlSTO6l-19" value="Lorem ipsum dolor sit amet, consectetur adipiscing elit, sed do eiusmod &lt;br/&gt;tempor incididunt ut labore et dolore magna aliqua. Ut enim ad minim &lt;br/&gt;veniam, quis nostrud exercitation ullamco laboris nisi ut aliquip ex ea &lt;br/&gt;commodo consequat. Duis aute irure dolor in reprehenderit in voluptate &lt;br/&gt;velit esse cillum dolore eu fugiat nulla pariatur. Excepteur sint &lt;br/&gt;occaecat cupidatat non proident, sunt in culpa qui officia deserunt &lt;br/&gt;mollit anim id est laborum." style="text;html=1;align=left;verticalAlign=top;whiteSpace=wrap;rounded=0;" vertex="1" parent="zopvRXgS-9q4ktlSTO6l-22">
          <mxGeometry y="30" width="440" height="110" as="geometry" />
        </mxCell>
        <mxCell id="zopvRXgS-9q4ktlSTO6l-24" value="&lt;div&gt;Student Contacts&lt;br&gt;&lt;/div&gt;" style="text;html=1;align=left;verticalAlign=bottom;whiteSpace=wrap;rounded=0;strokeColor=none;dashed=1;fontSize=16;" vertex="1" parent="1">
          <mxGeometry x="220" y="300" width="440" height="30" as="geometry" />
        </mxCell>
        <mxCell id="zopvRXgS-9q4ktlSTO6l-67" value="&lt;div align=&quot;right&quot;&gt;Subject&lt;/div&gt;" style="text;html=1;align=right;verticalAlign=top;whiteSpace=wrap;rounded=0;fontSize=9;fontStyle=2" vertex="1" parent="1">
          <mxGeometry x="610" y="50" width="50" height="20" as="geometry" />
        </mxCell>
        <mxCell id="zopvRXgS-9q4ktlSTO6l-93" value="Grade Level" style="text;html=1;align=right;verticalAlign=top;whiteSpace=wrap;rounded=0;fontSize=9;fontStyle=2" vertex="1" parent="1">
          <mxGeometry x="600" y="60" width="60" height="20" as="geometry" />
        </mxCell>
        <mxCell id="zopvRXgS-9q4ktlSTO6l-95" value="" style="endArrow=none;dashed=1;html=1;dashPattern=1 3;strokeWidth=2;rounded=0;" edge="1" parent="1">
          <mxGeometry width="50" height="50" relative="1" as="geometry">
            <mxPoint x="220" y="390" as="sourcePoint" />
            <mxPoint x="360" y="390" as="targetPoint" />
          </mxGeometry>
        </mxCell>
        <mxCell id="zopvRXgS-9q4ktlSTO6l-97" value="" style="group" vertex="1" connectable="0" parent="1">
          <mxGeometry x="220" y="340" width="440" height="30" as="geometry" />
        </mxCell>
        <mxCell id="zopvRXgS-9q4ktlSTO6l-63" value="" style="group" vertex="1" connectable="0" parent="zopvRXgS-9q4ktlSTO6l-97">
          <mxGeometry x="230" width="210" height="30" as="geometry" />
        </mxCell>
        <mxCell id="zopvRXgS-9q4ktlSTO6l-64" value="" style="endArrow=none;html=1;rounded=0;" edge="1" parent="zopvRXgS-9q4ktlSTO6l-63">
          <mxGeometry width="50" height="50" relative="1" as="geometry">
            <mxPoint y="30" as="sourcePoint" />
            <mxPoint x="210" y="30" as="targetPoint" />
          </mxGeometry>
        </mxCell>
        <mxCell id="zopvRXgS-9q4ktlSTO6l-65" value="Phone" style="text;html=1;align=left;verticalAlign=middle;whiteSpace=wrap;rounded=0;" vertex="1" parent="zopvRXgS-9q4ktlSTO6l-63">
          <mxGeometry x="7.500000000000001" width="75" height="30" as="geometry" />
        </mxCell>
        <mxCell id="zopvRXgS-9q4ktlSTO6l-66" value="(123)456-7890" style="text;html=1;align=right;verticalAlign=middle;whiteSpace=wrap;rounded=0;" vertex="1" parent="zopvRXgS-9q4ktlSTO6l-63">
          <mxGeometry x="90" width="112.5" height="30" as="geometry" />
        </mxCell>
        <mxCell id="zopvRXgS-9q4ktlSTO6l-89" value="" style="group" vertex="1" connectable="0" parent="zopvRXgS-9q4ktlSTO6l-97">
          <mxGeometry width="210" height="30" as="geometry" />
        </mxCell>
        <mxCell id="zopvRXgS-9q4ktlSTO6l-90" value="" style="endArrow=none;html=1;rounded=0;" edge="1" parent="zopvRXgS-9q4ktlSTO6l-89">
          <mxGeometry width="50" height="50" relative="1" as="geometry">
            <mxPoint y="30" as="sourcePoint" />
            <mxPoint x="210" y="30" as="targetPoint" />
          </mxGeometry>
        </mxCell>
        <mxCell id="zopvRXgS-9q4ktlSTO6l-91" value="Email" style="text;html=1;align=left;verticalAlign=middle;whiteSpace=wrap;rounded=0;" vertex="1" parent="zopvRXgS-9q4ktlSTO6l-89">
          <mxGeometry x="7.500000000000001" width="75" height="30" as="geometry" />
        </mxCell>
        <mxCell id="zopvRXgS-9q4ktlSTO6l-92" value="jdoe@gmail.com" style="text;html=1;align=right;verticalAlign=middle;whiteSpace=wrap;rounded=0;" vertex="1" parent="zopvRXgS-9q4ktlSTO6l-89">
          <mxGeometry x="90" width="112.5" height="30" as="geometry" />
        </mxCell>
        <mxCell id="zopvRXgS-9q4ktlSTO6l-107" value="" style="group" vertex="1" connectable="0" parent="1">
          <mxGeometry x="220" y="390" width="440" height="70" as="geometry" />
        </mxCell>
        <mxCell id="zopvRXgS-9q4ktlSTO6l-87" value="" style="group" vertex="1" connectable="0" parent="zopvRXgS-9q4ktlSTO6l-107">
          <mxGeometry y="10" width="440" height="30" as="geometry" />
        </mxCell>
        <mxCell id="zopvRXgS-9q4ktlSTO6l-68" value="" style="group" vertex="1" connectable="0" parent="zopvRXgS-9q4ktlSTO6l-87">
          <mxGeometry x="230" width="210" height="30" as="geometry" />
        </mxCell>
        <mxCell id="zopvRXgS-9q4ktlSTO6l-69" value="" style="endArrow=none;html=1;rounded=0;" edge="1" parent="zopvRXgS-9q4ktlSTO6l-68">
          <mxGeometry width="50" height="50" relative="1" as="geometry">
            <mxPoint y="30" as="sourcePoint" />
            <mxPoint x="210" y="30" as="targetPoint" />
          </mxGeometry>
        </mxCell>
        <mxCell id="zopvRXgS-9q4ktlSTO6l-70" value="Relation" style="text;html=1;align=left;verticalAlign=middle;whiteSpace=wrap;rounded=0;" vertex="1" parent="zopvRXgS-9q4ktlSTO6l-68">
          <mxGeometry x="7.500000000000001" width="75" height="30" as="geometry" />
        </mxCell>
        <mxCell id="zopvRXgS-9q4ktlSTO6l-71" value="Mother" style="text;html=1;align=right;verticalAlign=middle;whiteSpace=wrap;rounded=0;" vertex="1" parent="zopvRXgS-9q4ktlSTO6l-68">
          <mxGeometry x="90" width="112.5" height="30" as="geometry" />
        </mxCell>
        <mxCell id="zopvRXgS-9q4ktlSTO6l-74" value="" style="group" vertex="1" connectable="0" parent="zopvRXgS-9q4ktlSTO6l-87">
          <mxGeometry width="210" height="30" as="geometry" />
        </mxCell>
        <mxCell id="zopvRXgS-9q4ktlSTO6l-75" value="" style="endArrow=none;html=1;rounded=0;" edge="1" parent="zopvRXgS-9q4ktlSTO6l-74">
          <mxGeometry width="50" height="50" relative="1" as="geometry">
            <mxPoint y="30" as="sourcePoint" />
            <mxPoint x="210" y="30" as="targetPoint" />
          </mxGeometry>
        </mxCell>
        <mxCell id="zopvRXgS-9q4ktlSTO6l-76" value="Name" style="text;html=1;align=left;verticalAlign=middle;whiteSpace=wrap;rounded=0;" vertex="1" parent="zopvRXgS-9q4ktlSTO6l-74">
          <mxGeometry x="7.500000000000001" width="75" height="30" as="geometry" />
        </mxCell>
        <mxCell id="zopvRXgS-9q4ktlSTO6l-77" value="Jane Doe" style="text;html=1;align=right;verticalAlign=middle;whiteSpace=wrap;rounded=0;" vertex="1" parent="zopvRXgS-9q4ktlSTO6l-74">
          <mxGeometry x="90" width="112.5" height="30" as="geometry" />
        </mxCell>
        <mxCell id="zopvRXgS-9q4ktlSTO6l-96" value="" style="endArrow=none;dashed=1;html=1;dashPattern=1 3;strokeWidth=2;rounded=0;entryX=0.958;entryY=0.365;entryDx=0;entryDy=0;entryPerimeter=0;" edge="1" parent="zopvRXgS-9q4ktlSTO6l-107" target="zopvRXgS-9q4ktlSTO6l-1">
          <mxGeometry width="50" height="50" relative="1" as="geometry">
            <mxPoint as="sourcePoint" />
            <mxPoint x="140" as="targetPoint" />
          </mxGeometry>
        </mxCell>
        <mxCell id="zopvRXgS-9q4ktlSTO6l-98" value="" style="group" vertex="1" connectable="0" parent="zopvRXgS-9q4ktlSTO6l-107">
          <mxGeometry y="40" width="440" height="30" as="geometry" />
        </mxCell>
        <mxCell id="zopvRXgS-9q4ktlSTO6l-99" value="" style="group" vertex="1" connectable="0" parent="zopvRXgS-9q4ktlSTO6l-98">
          <mxGeometry x="230" width="210" height="30" as="geometry" />
        </mxCell>
        <mxCell id="zopvRXgS-9q4ktlSTO6l-100" value="" style="endArrow=none;html=1;rounded=0;" edge="1" parent="zopvRXgS-9q4ktlSTO6l-99">
          <mxGeometry width="50" height="50" relative="1" as="geometry">
            <mxPoint y="30" as="sourcePoint" />
            <mxPoint x="210" y="30" as="targetPoint" />
          </mxGeometry>
        </mxCell>
        <mxCell id="zopvRXgS-9q4ktlSTO6l-101" value="Phone" style="text;html=1;align=left;verticalAlign=middle;whiteSpace=wrap;rounded=0;" vertex="1" parent="zopvRXgS-9q4ktlSTO6l-99">
          <mxGeometry x="7.500000000000001" width="75" height="30" as="geometry" />
        </mxCell>
        <mxCell id="zopvRXgS-9q4ktlSTO6l-102" value="(123)456-7890" style="text;html=1;align=right;verticalAlign=middle;whiteSpace=wrap;rounded=0;" vertex="1" parent="zopvRXgS-9q4ktlSTO6l-99">
          <mxGeometry x="90" width="112.5" height="30" as="geometry" />
        </mxCell>
        <mxCell id="zopvRXgS-9q4ktlSTO6l-103" value="" style="group" vertex="1" connectable="0" parent="zopvRXgS-9q4ktlSTO6l-98">
          <mxGeometry width="210" height="30" as="geometry" />
        </mxCell>
        <mxCell id="zopvRXgS-9q4ktlSTO6l-104" value="" style="endArrow=none;html=1;rounded=0;" edge="1" parent="zopvRXgS-9q4ktlSTO6l-103">
          <mxGeometry width="50" height="50" relative="1" as="geometry">
            <mxPoint y="30" as="sourcePoint" />
            <mxPoint x="210" y="30" as="targetPoint" />
          </mxGeometry>
        </mxCell>
        <mxCell id="zopvRXgS-9q4ktlSTO6l-105" value="Email" style="text;html=1;align=left;verticalAlign=middle;whiteSpace=wrap;rounded=0;" vertex="1" parent="zopvRXgS-9q4ktlSTO6l-103">
          <mxGeometry x="7.500000000000001" width="75" height="30" as="geometry" />
        </mxCell>
        <mxCell id="zopvRXgS-9q4ktlSTO6l-106" value="jdoe@gmail.com" style="text;html=1;align=right;verticalAlign=middle;whiteSpace=wrap;rounded=0;" vertex="1" parent="zopvRXgS-9q4ktlSTO6l-103">
          <mxGeometry x="90" width="112.5" height="30" as="geometry" />
        </mxCell>
        <mxCell id="zopvRXgS-9q4ktlSTO6l-108" value="" style="group" vertex="1" connectable="0" parent="1">
          <mxGeometry x="220" y="480" width="440" height="70" as="geometry" />
        </mxCell>
        <mxCell id="zopvRXgS-9q4ktlSTO6l-109" value="" style="group" vertex="1" connectable="0" parent="zopvRXgS-9q4ktlSTO6l-108">
          <mxGeometry y="10" width="440" height="30" as="geometry" />
        </mxCell>
        <mxCell id="zopvRXgS-9q4ktlSTO6l-110" value="" style="group" vertex="1" connectable="0" parent="zopvRXgS-9q4ktlSTO6l-109">
          <mxGeometry x="230" width="210" height="30" as="geometry" />
        </mxCell>
        <mxCell id="zopvRXgS-9q4ktlSTO6l-111" value="" style="endArrow=none;html=1;rounded=0;" edge="1" parent="zopvRXgS-9q4ktlSTO6l-110">
          <mxGeometry width="50" height="50" relative="1" as="geometry">
            <mxPoint y="30" as="sourcePoint" />
            <mxPoint x="210" y="30" as="targetPoint" />
          </mxGeometry>
        </mxCell>
        <mxCell id="zopvRXgS-9q4ktlSTO6l-112" value="Relation" style="text;html=1;align=left;verticalAlign=middle;whiteSpace=wrap;rounded=0;" vertex="1" parent="zopvRXgS-9q4ktlSTO6l-110">
          <mxGeometry x="7.500000000000001" width="75" height="30" as="geometry" />
        </mxCell>
        <mxCell id="zopvRXgS-9q4ktlSTO6l-113" value="Father" style="text;html=1;align=right;verticalAlign=middle;whiteSpace=wrap;rounded=0;" vertex="1" parent="zopvRXgS-9q4ktlSTO6l-110">
          <mxGeometry x="90" width="112.5" height="30" as="geometry" />
        </mxCell>
        <mxCell id="zopvRXgS-9q4ktlSTO6l-114" value="" style="group" vertex="1" connectable="0" parent="zopvRXgS-9q4ktlSTO6l-109">
          <mxGeometry width="210" height="30" as="geometry" />
        </mxCell>
        <mxCell id="zopvRXgS-9q4ktlSTO6l-115" value="" style="endArrow=none;html=1;rounded=0;" edge="1" parent="zopvRXgS-9q4ktlSTO6l-114">
          <mxGeometry width="50" height="50" relative="1" as="geometry">
            <mxPoint y="30" as="sourcePoint" />
            <mxPoint x="210" y="30" as="targetPoint" />
          </mxGeometry>
        </mxCell>
        <mxCell id="zopvRXgS-9q4ktlSTO6l-116" value="Name" style="text;html=1;align=left;verticalAlign=middle;whiteSpace=wrap;rounded=0;" vertex="1" parent="zopvRXgS-9q4ktlSTO6l-114">
          <mxGeometry x="7.500000000000001" width="75" height="30" as="geometry" />
        </mxCell>
        <mxCell id="zopvRXgS-9q4ktlSTO6l-117" value="Jacob Doe" style="text;html=1;align=right;verticalAlign=middle;whiteSpace=wrap;rounded=0;" vertex="1" parent="zopvRXgS-9q4ktlSTO6l-114">
          <mxGeometry x="90" width="112.5" height="30" as="geometry" />
        </mxCell>
        <mxCell id="zopvRXgS-9q4ktlSTO6l-118" value="" style="endArrow=none;dashed=1;html=1;dashPattern=1 3;strokeWidth=2;rounded=0;" edge="1" parent="zopvRXgS-9q4ktlSTO6l-108">
          <mxGeometry width="50" height="50" relative="1" as="geometry">
            <mxPoint as="sourcePoint" />
            <mxPoint x="440" as="targetPoint" />
          </mxGeometry>
        </mxCell>
        <mxCell id="zopvRXgS-9q4ktlSTO6l-119" value="" style="group" vertex="1" connectable="0" parent="zopvRXgS-9q4ktlSTO6l-108">
          <mxGeometry y="40" width="440" height="30" as="geometry" />
        </mxCell>
        <mxCell id="zopvRXgS-9q4ktlSTO6l-120" value="" style="group" vertex="1" connectable="0" parent="zopvRXgS-9q4ktlSTO6l-119">
          <mxGeometry x="230" width="210" height="30" as="geometry" />
        </mxCell>
        <mxCell id="zopvRXgS-9q4ktlSTO6l-121" value="" style="endArrow=none;html=1;rounded=0;" edge="1" parent="zopvRXgS-9q4ktlSTO6l-120">
          <mxGeometry width="50" height="50" relative="1" as="geometry">
            <mxPoint y="30" as="sourcePoint" />
            <mxPoint x="210" y="30" as="targetPoint" />
          </mxGeometry>
        </mxCell>
        <mxCell id="zopvRXgS-9q4ktlSTO6l-122" value="Phone" style="text;html=1;align=left;verticalAlign=middle;whiteSpace=wrap;rounded=0;" vertex="1" parent="zopvRXgS-9q4ktlSTO6l-120">
          <mxGeometry x="7.500000000000001" width="75" height="30" as="geometry" />
        </mxCell>
        <mxCell id="zopvRXgS-9q4ktlSTO6l-123" value="(123)456-7890" style="text;html=1;align=right;verticalAlign=middle;whiteSpace=wrap;rounded=0;" vertex="1" parent="zopvRXgS-9q4ktlSTO6l-120">
          <mxGeometry x="90" width="112.5" height="30" as="geometry" />
        </mxCell>
        <mxCell id="zopvRXgS-9q4ktlSTO6l-124" value="" style="group" vertex="1" connectable="0" parent="zopvRXgS-9q4ktlSTO6l-119">
          <mxGeometry width="210" height="30" as="geometry" />
        </mxCell>
        <mxCell id="zopvRXgS-9q4ktlSTO6l-125" value="" style="endArrow=none;html=1;rounded=0;" edge="1" parent="zopvRXgS-9q4ktlSTO6l-124">
          <mxGeometry width="50" height="50" relative="1" as="geometry">
            <mxPoint y="30" as="sourcePoint" />
            <mxPoint x="210" y="30" as="targetPoint" />
          </mxGeometry>
        </mxCell>
        <mxCell id="zopvRXgS-9q4ktlSTO6l-126" value="Email" style="text;html=1;align=left;verticalAlign=middle;whiteSpace=wrap;rounded=0;" vertex="1" parent="zopvRXgS-9q4ktlSTO6l-124">
          <mxGeometry x="7.500000000000001" width="75" height="30" as="geometry" />
        </mxCell>
        <mxCell id="zopvRXgS-9q4ktlSTO6l-127" value="jdoe@gmail.com" style="text;html=1;align=right;verticalAlign=middle;whiteSpace=wrap;rounded=0;" vertex="1" parent="zopvRXgS-9q4ktlSTO6l-124">
          <mxGeometry x="90" width="112.5" height="30" as="geometry" />
        </mxCell>
      </root>
    </mxGraphModel>
  </diagram>
</mxfile>
